<svg width="83" height="83" viewBox="0 0 83 83" fill="none" xmlns="http://www.w3.org/2000/svg">
<path d="M41.5 80.5C63.0391 80.5 80.5 63.0391 80.5 41.5C80.5 19.9609 63.0391 2.5 41.5 2.5C19.9609 2.5 2.5 19.9609 2.5 41.5C2.5 63.0391 19.9609 80.5 41.5 80.5Z" fill="#F5EEE5" stroke="white" stroke-width="5"/>
<path d="M48.1429 47.2662C48.1429 49.5628 50.5446 50.2518 51.771 50.5963C55.6546 51.7446 63.4218 53.9838 63.4218 53.9838C65.057 54.6154 66.3345 55.9934 67.0499 57.7733V63.4H15.95V57.7733C16.6143 55.9934 17.9429 54.6154 19.5781 53.9838C19.5781 53.9838 27.3453 51.7446 31.2289 50.5963C32.4552 50.2518 34.857 49.5628 34.857 47.2662C34.857 44.9696 34.857 41.0079 34.857 41.0079H48.1429C48.1429 41.0079 48.1429 44.9696 48.1429 47.2662Z" fill="#E6C19C"/>
<path d="M41.6022 12.3C41.6533 12.3 41.6533 12.3 41.7044 12.3C43.3907 12.3 45.8946 12.4148 47.5298 13.4483C49.2161 14.5392 51.2601 16.6636 51.8733 20.3956C53.0997 28.2616 50.8002 40.7208 48.654 44.7399C46.61 48.5868 43.6462 50.0222 41.7555 50.137H41.7044C41.6533 50.137 41.6533 50.137 41.6022 50.137C41.5511 50.137 41.5511 50.137 41.5 50.137H41.4489C39.5582 50.0222 36.5944 48.5868 34.5504 44.7399C32.4042 40.7208 30.1047 28.2616 31.3311 20.3956C31.9443 16.6636 33.9883 14.5392 35.6746 13.4483C37.3098 12.4148 39.8137 12.3 41.5 12.3C41.5511 12.3 41.5511 12.3 41.6022 12.3Z" fill="#D4B08C"/>
<path d="M41.0192 12.3C52.0895 12.3 53.0168 20.7685 53.0748 21.5663C53.7124 28.8688 51.336 38.8101 49.1335 42.2466C46.8151 45.8672 43.4535 47.2173 41.309 47.34C41.193 47.34 41.193 47.34 41.1351 47.34C41.0771 47.34 41.0771 47.34 41.0192 47.34C38.8167 47.1559 35.455 45.8059 33.1366 42.1853C30.9342 38.7488 28.5578 28.8075 29.1954 21.4435C29.2533 20.7071 29.9488 12.3 41.0192 12.3Z" fill="#F2CEA5"/>
</svg>
