<?xml version="1.0" standalone="no"?>
<!DOCTYPE svg PUBLIC "-//W3C//DTD SVG 20010904//EN"
 "http://www.w3.org/TR/2001/REC-SVG-20010904/DTD/svg10.dtd">
<svg version="1.0" xmlns="http://www.w3.org/2000/svg"
 width="700.000000pt" height="700.000000pt" viewBox="0 0 700.000000 700.000000"
 preserveAspectRatio="xMidYMid meet">
<metadata>
Created by potrace 1.14, written by Peter Selinger 2001-2017
</metadata>
<g transform="translate(0.000000,700.000000) scale(0.100000,-0.100000)"
fill="#000000" stroke="none">
<path d="M2781 6169 c-212 -41 -400 -173 -510 -355 l-38 -64 -104 -4 c-121 -4
-203 -27 -298 -83 -186 -109 -306 -309 -318 -528 -6 -117 14 -214 68 -325 56
-114 168 -227 282 -284 l78 -40 -3 -1210 c-3 -1123 -5 -1217 -21 -1296 -32
-147 -68 -261 -126 -395 -56 -129 -56 -131 -56 -230 0 -89 3 -106 28 -156 32
-67 118 -151 184 -182 l48 -22 1355 0 1355 0 48 22 c66 31 152 115 184 182 25
50 28 67 28 156 0 95 -2 105 -39 185 -59 130 -112 294 -135 413 -12 59 -21
110 -21 113 0 2 89 4 198 4 212 0 285 10 392 53 241 98 413 305 465 562 14 71
16 161 13 720 l-3 640 -33 95 c-88 252 -271 427 -524 501 -62 18 -107 22 -296
26 l-223 5 3 111 3 110 41 12 c213 63 383 289 384 511 1 248 -176 476 -415
534 -122 29 -288 6 -395 -56 l-45 -26 -15 24 c-29 45 -134 149 -187 184 -134
89 -323 124 -483 90 -80 -17 -200 -71 -249 -112 l-29 -24 -47 31 c-141 95
-374 142 -544 108z m274 -221 c66 -17 157 -66 219 -119 50 -42 64 -49 101 -49
39 0 50 6 111 61 77 70 148 105 237 118 186 26 372 -77 448 -246 49 -109 55
-117 97 -132 50 -18 90 -4 127 45 60 78 183 131 282 121 111 -12 215 -85 265
-185 19 -39 23 -63 23 -142 0 -87 -3 -100 -30 -149 -37 -68 -102 -125 -171
-151 -53 -19 -76 -20 -623 -20 l-568 0 -6 30 c-8 38 -47 63 -100 63 -37 0 -45
-5 -77 -44 -19 -23 -65 -74 -103 -112 -151 -154 -375 -197 -579 -111 -92 38
-117 30 -189 -66 -64 -85 -105 -120 -184 -156 -211 -97 -466 -2 -566 211 -128
272 59 596 355 613 43 3 102 -1 132 -7 48 -11 59 -10 92 6 30 14 42 30 62 78
70 167 170 269 322 327 94 35 220 42 323 16z m1485 -2443 c0 -1507 -1 -1473
60 -1711 29 -113 83 -259 126 -346 45 -88 24 -176 -52 -220 -30 -18 -92 -19
-1325 -21 l-1294 -2 -37 23 c-48 30 -83 99 -74 147 4 18 24 71 45 117 80 172
139 399 161 607 6 65 10 516 10 1227 l0 1124 25 0 c61 0 186 34 263 72 61 30
104 61 158 113 l75 73 47 -16 c32 -11 89 -16 182 -16 115 -1 146 2 210 22 95
30 190 80 260 136 l55 45 553 0 552 1 0 -1375z m724 913 c175 -67 309 -220
345 -396 7 -35 11 -259 11 -660 0 -675 1 -666 -66 -793 -65 -124 -211 -238
-344 -268 -25 -6 -136 -11 -247 -11 l-203 0 0 104 0 104 198 4 c189 3 199 4
253 29 69 33 127 89 160 155 l24 49 0 635 0 635 -23 43 c-35 66 -88 119 -150
149 -55 27 -63 28 -262 33 l-205 5 -3 94 c-1 52 0 101 3 109 4 12 41 13 223
10 204 -4 221 -6 286 -30z m-109 -438 l30 -30 3 -558 c2 -386 0 -569 -8 -595
-20 -68 -48 -77 -247 -77 l-173 0 0 652 0 651 182 -6 182 -6 31 -31z"/>
<path d="M2641 4214 c-53 -37 -51 1 -51 -1174 0 -935 2 -1096 15 -1126 31 -74
143 -81 186 -11 19 31 19 56 17 1150 l-3 1119 -33 29 c-38 34 -93 39 -131 13z"/>
<path d="M3278 4201 l-33 -29 -3 -1119 c-2 -1094 -2 -1119 17 -1150 28 -45 85
-62 134 -38 71 34 67 -40 67 1174 0 1176 2 1138 -51 1175 -38 26 -93 21 -131
-13z"/>
<path d="M3928 4201 l-33 -29 -3 -1116 c-3 -1228 -6 -1158 58 -1191 37 -19 63
-19 101 1 62 31 59 -20 59 1174 0 1175 2 1137 -51 1174 -38 26 -93 21 -131
-13z"/>
</g>
</svg>
